<?xml version="1.0" encoding="UTF-8" standalone="no"?>
<!DOCTYPE svg PUBLIC "-//W3C//DTD SVG 1.1//EN"
 "http://www.w3.org/Graphics/SVG/1.1/DTD/svg11.dtd">
<!-- Generated by graphviz version 2.40.1 (0)
 -->
<!-- Title: Tree Pages: 1 -->
<svg width="216pt" height="360pt"
 viewBox="0.00 0.00 215.70 360.00" xmlns="http://www.w3.org/2000/svg" xmlns:xlink="http://www.w3.org/1999/xlink">
<g id="graph0" class="graph" transform="scale(.1957 .1957) rotate(0) translate(4 1835.7566)">
<title>Tree</title>
<polygon fill="#ffffff" stroke="transparent" points="-4,4 -4,-1835.7566 1098.3397,-1835.7566 1098.3397,4 -4,4"/>
<!-- categorized -->
<g id="node1" class="node">
<title>categorized</title>
<ellipse fill="none" stroke="#000000" cx="241.0444" cy="-1781.0611" rx="50.8918" ry="50.8918"/>
<text text-anchor="middle" x="241.0444" y="-1777.3611" font-family="Times,serif" font-size="14.00" fill="#000000">categorized</text>
</g>
<!-- nonrepeat_specific -->
<g id="node2" class="node">
<title>nonrepeat_specific</title>
<ellipse fill="none" stroke="#000000" cx="154.0444" cy="-1614.4227" rx="76.8869" ry="76.8869"/>
<text text-anchor="middle" x="154.0444" y="-1610.7227" font-family="Times,serif" font-size="14.00" fill="#000000">nonrepeat_specific</text>
</g>
<!-- categorized&#45;&gt;nonrepeat_specific -->
<g id="edge1" class="edge">
<title>categorized&#45;&gt;nonrepeat_specific</title>
<path fill="none" stroke="#000000" d="M217.501,-1735.9664C210.3075,-1722.1882 202.1845,-1706.6295 194.2116,-1691.3584"/>
<polygon fill="#000000" stroke="#000000" points="197.2736,-1689.6607 189.5429,-1682.4159 191.0684,-1692.9004 197.2736,-1689.6607"/>
</g>
<!-- repeat_multigroup1 -->
<g id="node3" class="node">
<title>repeat_multigroup1</title>
<ellipse fill="none" stroke="#000000" cx="329.0444" cy="-1614.4227" rx="79.8859" ry="79.8859"/>
<text text-anchor="middle" x="329.0444" y="-1610.7227" font-family="Times,serif" font-size="14.00" fill="#000000">repeat_multigroup1</text>
</g>
<!-- categorized&#45;&gt;repeat_multigroup1 -->
<g id="edge2" class="edge">
<title>categorized&#45;&gt;repeat_multigroup1</title>
<path fill="none" stroke="#000000" d="M264.8585,-1735.9664C271.6872,-1723.0353 279.3442,-1708.536 286.9265,-1694.178"/>
<polygon fill="#000000" stroke="#000000" points="290.0549,-1695.7489 291.6298,-1685.2717 283.865,-1692.48 290.0549,-1695.7489"/>
</g>
<!-- D20S16_specific -->
<g id="node4" class="node">
<title>D20S16_specific</title>
<ellipse fill="none" stroke="#000000" cx="220.0444" cy="-1368.4914" rx="70.6878" ry="70.6878"/>
<text text-anchor="middle" x="220.0444" y="-1364.7914" font-family="Times,serif" font-size="14.00" fill="#000000">D20S16_specific</text>
</g>
<!-- repeat_multigroup1&#45;&gt;D20S16_specific -->
<g id="edge3" class="edge">
<title>repeat_multigroup1&#45;&gt;D20S16_specific</title>
<path fill="none" stroke="#000000" d="M296.6359,-1541.3011C282.8731,-1510.2487 266.8478,-1474.0916 253.0234,-1442.9004"/>
<polygon fill="#000000" stroke="#000000" points="256.0606,-1441.115 248.8087,-1433.3909 249.661,-1443.9514 256.0606,-1441.115"/>
</g>
<!-- Interspersed_Repeat_multigroup1 -->
<g id="node5" class="node">
<title>Interspersed_Repeat_multigroup1</title>
<ellipse fill="none" stroke="#000000" cx="439.0444" cy="-1368.4914" rx="129.9769" ry="129.9769"/>
<text text-anchor="middle" x="439.0444" y="-1364.7914" font-family="Times,serif" font-size="14.00" fill="#000000">Interspersed_Repeat_multigroup1</text>
</g>
<!-- repeat_multigroup1&#45;&gt;Interspersed_Repeat_multigroup1 -->
<g id="edge4" class="edge">
<title>repeat_multigroup1&#45;&gt;Interspersed_Repeat_multigroup1</title>
<path fill="none" stroke="#000000" d="M361.7502,-1541.3011C368.0436,-1527.2306 374.8059,-1512.112 381.6178,-1496.8823"/>
<polygon fill="#000000" stroke="#000000" points="384.9738,-1497.9512 385.8619,-1487.3936 378.5839,-1495.093 384.9738,-1497.9512"/>
</g>
<!-- rRNA_specific -->
<g id="node6" class="node">
<title>rRNA_specific</title>
<ellipse fill="none" stroke="#000000" cx="63.0444" cy="-1063.4152" rx="63.0888" ry="63.0888"/>
<text text-anchor="middle" x="63.0444" y="-1059.7152" font-family="Times,serif" font-size="14.00" fill="#000000">rRNA_specific</text>
</g>
<!-- Interspersed_Repeat_multigroup1&#45;&gt;rRNA_specific -->
<g id="edge5" class="edge">
<title>Interspersed_Repeat_multigroup1&#45;&gt;rRNA_specific</title>
<path fill="none" stroke="#000000" d="M350.6311,-1273.1053C334.8404,-1259.9521 317.7436,-1247.793 300.0444,-1238.5029 233.5848,-1203.6188 194.6165,-1248.164 135.0444,-1202.5029 112.3645,-1185.1191 96.1718,-1158.5679 84.9621,-1133.3058"/>
<polygon fill="#000000" stroke="#000000" points="88.1766,-1131.9208 81.055,-1124.0765 81.7304,-1134.6498 88.1766,-1131.9208"/>
</g>
<!-- scRNA_specific -->
<g id="node7" class="node">
<title>scRNA_specific</title>
<ellipse fill="none" stroke="#000000" cx="212.0444" cy="-1063.4152" rx="67.6881" ry="67.6881"/>
<text text-anchor="middle" x="212.0444" y="-1059.7152" font-family="Times,serif" font-size="14.00" fill="#000000">scRNA_specific</text>
</g>
<!-- Interspersed_Repeat_multigroup1&#45;&gt;scRNA_specific -->
<g id="edge6" class="edge">
<title>Interspersed_Repeat_multigroup1&#45;&gt;scRNA_specific</title>
<path fill="none" stroke="#000000" d="M347.5273,-1275.6735C326.8529,-1252.6473 305.7915,-1227.4083 288.0444,-1202.5029 272.7489,-1181.0379 258.2596,-1156.1639 246.1146,-1133.4369"/>
<polygon fill="#000000" stroke="#000000" points="249.168,-1131.7237 241.4056,-1124.5128 242.977,-1134.9905 249.168,-1131.7237"/>
</g>
<!-- snRNA_specific -->
<g id="node8" class="node">
<title>snRNA_specific</title>
<ellipse fill="none" stroke="#000000" cx="365.0444" cy="-1063.4152" rx="67.6881" ry="67.6881"/>
<text text-anchor="middle" x="365.0444" y="-1059.7152" font-family="Times,serif" font-size="14.00" fill="#000000">snRNA_specific</text>
</g>
<!-- Interspersed_Repeat_multigroup1&#45;&gt;snRNA_specific -->
<g id="edge7" class="edge">
<title>Interspersed_Repeat_multigroup1&#45;&gt;snRNA_specific</title>
<path fill="none" stroke="#000000" d="M408.3046,-1241.762C399.8483,-1206.8995 390.9426,-1170.1846 383.4243,-1139.1892"/>
<polygon fill="#000000" stroke="#000000" points="386.7931,-1138.2294 381.0344,-1129.3363 379.9904,-1139.8796 386.7931,-1138.2294"/>
</g>
<!-- tRNA_specific -->
<g id="node9" class="node">
<title>tRNA_specific</title>
<ellipse fill="none" stroke="#000000" cx="513.0444" cy="-1063.4152" rx="62.2891" ry="62.2891"/>
<text text-anchor="middle" x="513.0444" y="-1059.7152" font-family="Times,serif" font-size="14.00" fill="#000000">tRNA_specific</text>
</g>
<!-- Interspersed_Repeat_multigroup1&#45;&gt;tRNA_specific -->
<g id="edge8" class="edge">
<title>Interspersed_Repeat_multigroup1&#45;&gt;tRNA_specific</title>
<path fill="none" stroke="#000000" d="M469.7842,-1241.762C478.6705,-1205.1268 488.053,-1166.4461 495.8004,-1134.5064"/>
<polygon fill="#000000" stroke="#000000" points="499.2996,-1134.9277 498.2556,-1124.3844 492.4969,-1133.2775 499.2996,-1134.9277"/>
</g>
<!-- Transposable_Element_multigroup1 -->
<g id="node10" class="node">
<title>Transposable_Element_multigroup1</title>
<ellipse fill="none" stroke="#000000" cx="732.0444" cy="-1063.4152" rx="139.1754" ry="139.1754"/>
<text text-anchor="middle" x="732.0444" y="-1059.7152" font-family="Times,serif" font-size="14.00" fill="#000000">Transposable_Element_multigroup1</text>
</g>
<!-- Interspersed_Repeat_multigroup1&#45;&gt;Transposable_Element_multigroup1 -->
<g id="edge9" class="edge">
<title>Interspersed_Repeat_multigroup1&#45;&gt;Transposable_Element_multigroup1</title>
<path fill="none" stroke="#000000" d="M529.3449,-1274.4691C560.6875,-1241.8347 596.0753,-1204.9884 628.4085,-1171.3225"/>
<polygon fill="#000000" stroke="#000000" points="631.2866,-1173.3787 635.6891,-1163.7418 626.2379,-1168.5298 631.2866,-1173.3787"/>
</g>
<!-- Unknown_specific -->
<g id="node20" class="node">
<title>Unknown_specific</title>
<ellipse fill="none" stroke="#000000" cx="964.0444" cy="-1063.4152" rx="75.2868" ry="75.2868"/>
<text text-anchor="middle" x="964.0444" y="-1059.7152" font-family="Times,serif" font-size="14.00" fill="#000000">Unknown_specific</text>
</g>
<!-- Interspersed_Repeat_multigroup1&#45;&gt;Unknown_specific -->
<g id="edge19" class="edge">
<title>Interspersed_Repeat_multigroup1&#45;&gt;Unknown_specific</title>
<path fill="none" stroke="#000000" d="M566.9018,-1344.1083C661.7033,-1320.7813 789.6291,-1277.696 880.0444,-1202.5029 899.8618,-1186.0219 916.2337,-1163.5872 929.095,-1141.5482"/>
<polygon fill="#000000" stroke="#000000" points="932.1613,-1143.236 934.031,-1132.8074 926.0661,-1139.7939 932.1613,-1143.236"/>
</g>
<!-- Class_I_Retrotransposition_multigroup1 -->
<g id="node11" class="node">
<title>Class_I_Retrotransposition_multigroup1</title>
<ellipse fill="none" stroke="#000000" cx="555.0444" cy="-725.192" rx="154.0727" ry="154.0727"/>
<text text-anchor="middle" x="555.0444" y="-721.492" font-family="Times,serif" font-size="14.00" fill="#000000">Class_I_Retrotransposition_multigroup1</text>
</g>
<!-- Transposable_Element_multigroup1&#45;&gt;Class_I_Retrotransposition_multigroup1 -->
<g id="edge10" class="edge">
<title>Transposable_Element_multigroup1&#45;&gt;Class_I_Retrotransposition_multigroup1</title>
<path fill="none" stroke="#000000" d="M667.392,-939.8732C655.666,-917.4664 643.3365,-893.9063 631.3139,-870.9329"/>
<polygon fill="#000000" stroke="#000000" points="634.2823,-869.0565 626.5446,-861.8192 628.0803,-872.3022 634.2823,-869.0565"/>
</g>
<!-- Class_II_DNA_Transposition_multigroup1 -->
<g id="node17" class="node">
<title>Class_II_DNA_Transposition_multigroup1</title>
<ellipse fill="none" stroke="#000000" cx="909.0444" cy="-725.192" rx="163.2712" ry="163.2712"/>
<text text-anchor="middle" x="909.0444" y="-721.492" font-family="Times,serif" font-size="14.00" fill="#000000">Class_II_DNA_Transposition_multigroup1</text>
</g>
<!-- Transposable_Element_multigroup1&#45;&gt;Class_II_DNA_Transposition_multigroup1 -->
<g id="edge16" class="edge">
<title>Transposable_Element_multigroup1&#45;&gt;Class_II_DNA_Transposition_multigroup1</title>
<path fill="none" stroke="#000000" d="M796.6968,-939.8732C807.0628,-920.0652 817.9004,-899.3559 828.5807,-878.9473"/>
<polygon fill="#000000" stroke="#000000" points="831.7741,-880.3936 833.3098,-869.9107 825.572,-877.1479 831.7741,-880.3936"/>
</g>
<!-- LINE_specific -->
<g id="node12" class="node">
<title>LINE_specific</title>
<ellipse fill="none" stroke="#000000" cx="293.0444" cy="-363.5709" rx="61.99" ry="61.99"/>
<text text-anchor="middle" x="293.0444" y="-359.8709" font-family="Times,serif" font-size="14.00" fill="#000000">LINE_specific</text>
</g>
<!-- Class_I_Retrotransposition_multigroup1&#45;&gt;LINE_specific -->
<g id="edge11" class="edge">
<title>Class_I_Retrotransposition_multigroup1&#45;&gt;LINE_specific</title>
<path fill="none" stroke="#000000" d="M441.4856,-620.598C413.942,-591.695 386.1078,-559.1336 364.0444,-526.0565 344.6992,-497.0544 328.5756,-461.9155 316.609,-431.7443"/>
<polygon fill="#000000" stroke="#000000" points="319.7589,-430.1874 312.8709,-422.1371 313.2353,-432.7257 319.7589,-430.1874"/>
</g>
<!-- LINE&#45;dependent_Retroposon_multigroup1 -->
<g id="node13" class="node">
<title>LINE&#45;dependent_Retroposon_multigroup1</title>
<ellipse fill="none" stroke="#000000" cx="535.0444" cy="-363.5709" rx="162.4712" ry="162.4712"/>
<text text-anchor="middle" x="535.0444" y="-359.8709" font-family="Times,serif" font-size="14.00" fill="#000000">LINE&#45;dependent_Retroposon_multigroup1</text>
</g>
<!-- Class_I_Retrotransposition_multigroup1&#45;&gt;LINE&#45;dependent_Retroposon_multigroup1 -->
<g id="edge12" class="edge">
<title>Class_I_Retrotransposition_multigroup1&#45;&gt;LINE&#45;dependent_Retroposon_multigroup1</title>
<path fill="none" stroke="#000000" d="M546.5336,-571.3078C545.8922,-559.7106 545.2424,-547.9623 544.5952,-536.2594"/>
<polygon fill="#000000" stroke="#000000" points="548.0743,-535.7832 544.0273,-525.9917 541.085,-536.1698 548.0743,-535.7832"/>
</g>
<!-- LTR_specific -->
<g id="node16" class="node">
<title>LTR_specific</title>
<ellipse fill="none" stroke="#000000" cx="773.0444" cy="-363.5709" rx="57.6901" ry="57.6901"/>
<text text-anchor="middle" x="773.0444" y="-359.8709" font-family="Times,serif" font-size="14.00" fill="#000000">LTR_specific</text>
</g>
<!-- Class_I_Retrotransposition_multigroup1&#45;&gt;LTR_specific -->
<g id="edge15" class="edge">
<title>Class_I_Retrotransposition_multigroup1&#45;&gt;LTR_specific</title>
<path fill="none" stroke="#000000" d="M653.0735,-606.2005C671.9195,-580.5884 690.5779,-553.0731 706.0444,-526.0565 723.6909,-495.232 739.142,-458.8454 750.7457,-428.3277"/>
<polygon fill="#000000" stroke="#000000" points="754.1443,-429.2324 754.3759,-418.6401 747.5894,-426.776 754.1443,-429.2324"/>
</g>
<!-- Retroposon_specific -->
<g id="node14" class="node">
<title>Retroposon_specific</title>
<ellipse fill="none" stroke="#000000" cx="454.0444" cy="-82.5427" rx="82.5854" ry="82.5854"/>
<text text-anchor="middle" x="454.0444" y="-78.8427" font-family="Times,serif" font-size="14.00" fill="#000000">Retroposon_specific</text>
</g>
<!-- LINE&#45;dependent_Retroposon_multigroup1&#45;&gt;Retroposon_specific -->
<g id="edge13" class="edge">
<title>LINE&#45;dependent_Retroposon_multigroup1&#45;&gt;Retroposon_specific</title>
<path fill="none" stroke="#000000" d="M489.9259,-207.033C486.4701,-195.0432 483.0598,-183.211 479.7973,-171.8918"/>
<polygon fill="#000000" stroke="#000000" points="483.1036,-170.7251 476.9709,-162.0857 476.3774,-172.6639 483.1036,-170.7251"/>
</g>
<!-- SINE_specific -->
<g id="node15" class="node">
<title>SINE_specific</title>
<ellipse fill="none" stroke="#000000" cx="616.0444" cy="-82.5427" rx="61.99" ry="61.99"/>
<text text-anchor="middle" x="616.0444" y="-78.8427" font-family="Times,serif" font-size="14.00" fill="#000000">SINE_specific</text>
</g>
<!-- LINE&#45;dependent_Retroposon_multigroup1&#45;&gt;SINE_specific -->
<g id="edge14" class="edge">
<title>LINE&#45;dependent_Retroposon_multigroup1&#45;&gt;SINE_specific</title>
<path fill="none" stroke="#000000" d="M580.1629,-207.033C585.7199,-187.7529 591.1595,-168.8806 596.0556,-151.8935"/>
<polygon fill="#000000" stroke="#000000" points="599.4659,-152.6989 598.8724,-142.1207 592.7397,-150.7602 599.4659,-152.6989"/>
</g>
<!-- DNA_specific -->
<g id="node18" class="node">
<title>DNA_specific</title>
<ellipse fill="none" stroke="#000000" cx="909.0444" cy="-363.5709" rx="60.3893" ry="60.3893"/>
<text text-anchor="middle" x="909.0444" y="-359.8709" font-family="Times,serif" font-size="14.00" fill="#000000">DNA_specific</text>
</g>
<!-- Class_II_DNA_Transposition_multigroup1&#45;&gt;DNA_specific -->
<g id="edge17" class="edge">
<title>Class_II_DNA_Transposition_multigroup1&#45;&gt;DNA_specific</title>
<path fill="none" stroke="#000000" d="M909.0444,-561.838C909.0444,-517.0131 909.0444,-470.7437 909.0444,-434.188"/>
<polygon fill="#000000" stroke="#000000" points="912.5445,-434.1443 909.0444,-424.1443 905.5445,-434.1444 912.5445,-434.1443"/>
</g>
<!-- RC_specific -->
<g id="node19" class="node">
<title>RC_specific</title>
<ellipse fill="none" stroke="#000000" cx="1041.0444" cy="-363.5709" rx="53.0913" ry="53.0913"/>
<text text-anchor="middle" x="1041.0444" y="-359.8709" font-family="Times,serif" font-size="14.00" fill="#000000">RC_specific</text>
</g>
<!-- Class_II_DNA_Transposition_multigroup1&#45;&gt;RC_specific -->
<g id="edge18" class="edge">
<title>Class_II_DNA_Transposition_multigroup1&#45;&gt;RC_specific</title>
<path fill="none" stroke="#000000" d="M965.0243,-571.8321C984.1495,-519.4376 1004.424,-463.8945 1019.2211,-423.3571"/>
<polygon fill="#000000" stroke="#000000" points="1022.5297,-424.5002 1022.6709,-413.9063 1015.954,-422.0999 1022.5297,-424.5002"/>
</g>
</g>
</svg>
