<?xml version="1.0" encoding="UTF-8" standalone="no"?>
<!DOCTYPE svg PUBLIC "-//W3C//DTD SVG 1.1//EN"
 "http://www.w3.org/Graphics/SVG/1.1/DTD/svg11.dtd">
<!-- Generated by graphviz version 2.40.1 (0)
 -->
<!-- Title: Tree Pages: 1 -->
<svg width="576pt" height="277pt"
 viewBox="0.00 0.00 576.00 277.25" xmlns="http://www.w3.org/2000/svg" xmlns:xlink="http://www.w3.org/1999/xlink">
<g id="graph0" class="graph" transform="scale(.3478 .3478) rotate(0) translate(4 793.1396)">
<title>Tree</title>
<polygon fill="#ffffff" stroke="transparent" points="-4,4 -4,-793.1396 1652.0946,-793.1396 1652.0946,4 -4,4"/>
<!-- chromosome_multigroup1 -->
<g id="node1" class="node">
<title>chromosome_multigroup1</title>
<ellipse fill="none" stroke="#000000" cx="940.5473" cy="-684.4988" rx="104.7816" ry="104.7816"/>
<text text-anchor="middle" x="940.5473" y="-680.7988" font-family="Times,serif" font-size="14.00" fill="#000000">chromosome_multigroup1</text>
</g>
<!-- autosome_multigroup1 -->
<g id="node2" class="node">
<title>autosome_multigroup1</title>
<ellipse fill="none" stroke="#000000" cx="850.5473" cy="-450.9164" rx="92.8835" ry="92.8835"/>
<text text-anchor="middle" x="850.5473" y="-447.2164" font-family="Times,serif" font-size="14.00" fill="#000000">autosome_multigroup1</text>
</g>
<!-- chromosome_multigroup1&#45;&gt;autosome_multigroup1 -->
<g id="edge1" class="edge">
<title>chromosome_multigroup1&#45;&gt;autosome_multigroup1</title>
<path fill="none" stroke="#000000" d="M902.9007,-586.7923C897.8618,-573.7145 892.6965,-560.3087 887.6667,-547.2547"/>
<polygon fill="#000000" stroke="#000000" points="890.8934,-545.8941 884.032,-537.8212 884.3615,-548.411 890.8934,-545.8941"/>
</g>
<!-- sex_multigroup1 -->
<g id="node28" class="node">
<title>sex_multigroup1</title>
<ellipse fill="none" stroke="#000000" cx="1278.5473" cy="-450.9164" rx="69.5877" ry="69.5877"/>
<text text-anchor="middle" x="1278.5473" y="-447.2164" font-family="Times,serif" font-size="14.00" fill="#000000">sex_multigroup1</text>
</g>
<!-- chromosome_multigroup1&#45;&gt;sex_multigroup1 -->
<g id="edge27" class="edge">
<title>chromosome_multigroup1&#45;&gt;sex_multigroup1</title>
<path fill="none" stroke="#000000" d="M1026.7135,-624.9518C1084.6381,-584.9217 1159.8109,-532.9718 1212.8977,-496.285"/>
<polygon fill="#000000" stroke="#000000" points="1214.9853,-499.0968 1221.2222,-490.5322 1211.0056,-493.3381 1214.9853,-499.0968"/>
</g>
<!-- acrocentric_multigroup1 -->
<g id="node3" class="node">
<title>acrocentric_multigroup1</title>
<ellipse fill="none" stroke="#000000" cx="228.5473" cy="-209.5346" rx="97.4827" ry="97.4827"/>
<text text-anchor="middle" x="228.5473" y="-205.8346" font-family="Times,serif" font-size="14.00" fill="#000000">acrocentric_multigroup1</text>
</g>
<!-- autosome_multigroup1&#45;&gt;acrocentric_multigroup1 -->
<g id="edge2" class="edge">
<title>autosome_multigroup1&#45;&gt;acrocentric_multigroup1</title>
<path fill="none" stroke="#000000" d="M762.7261,-420.0955C691.0494,-394.6392 587.3161,-357.1099 497.5473,-321.9746 440.8603,-299.7875 378.0671,-273.6315 327.4155,-252.1323"/>
<polygon fill="#000000" stroke="#000000" points="328.6756,-248.8649 318.1033,-248.1741 325.9373,-255.3071 328.6756,-248.8649"/>
</g>
<!-- metacentric_multigroup1 -->
<g id="node9" class="node">
<title>metacentric_multigroup1</title>
<ellipse fill="none" stroke="#000000" cx="606.5473" cy="-209.5346" rx="100.1823" ry="100.1823"/>
<text text-anchor="middle" x="606.5473" y="-205.8346" font-family="Times,serif" font-size="14.00" fill="#000000">metacentric_multigroup1</text>
</g>
<!-- autosome_multigroup1&#45;&gt;metacentric_multigroup1 -->
<g id="edge8" class="edge">
<title>autosome_multigroup1&#45;&gt;metacentric_multigroup1</title>
<path fill="none" stroke="#000000" d="M784.1955,-385.2766C753.6266,-355.0357 717.1254,-318.9261 685.1833,-287.3268"/>
<polygon fill="#000000" stroke="#000000" points="687.5894,-284.7838 678.0187,-280.2391 682.6664,-289.7602 687.5894,-284.7838"/>
</g>
<!-- submetacentric_multigroup1 -->
<g id="node15" class="node">
<title>submetacentric_multigroup1</title>
<ellipse fill="none" stroke="#000000" cx="1119.5473" cy="-209.5346" rx="112.3801" ry="112.3801"/>
<text text-anchor="middle" x="1119.5473" y="-205.8346" font-family="Times,serif" font-size="14.00" fill="#000000">submetacentric_multigroup1</text>
</g>
<!-- autosome_multigroup1&#45;&gt;submetacentric_multigroup1 -->
<g id="edge14" class="edge">
<title>autosome_multigroup1&#45;&gt;submetacentric_multigroup1</title>
<path fill="none" stroke="#000000" d="M919.8215,-388.7546C952.8119,-359.1513 992.7102,-323.3493 1028.1457,-291.552"/>
<polygon fill="#000000" stroke="#000000" points="1030.5301,-294.1149 1035.6354,-284.8312 1025.8551,-288.9049 1030.5301,-294.1149"/>
</g>
<!-- chr13 -->
<g id="node4" class="node">
<title>chr13</title>
<ellipse fill="none" stroke="#000000" cx="30.5473" cy="-30.5473" rx="30.5947" ry="30.5947"/>
<text text-anchor="middle" x="30.5473" y="-26.8473" font-family="Times,serif" font-size="14.00" fill="#000000">chr13</text>
</g>
<!-- acrocentric_multigroup1&#45;&gt;chr13 -->
<g id="edge3" class="edge">
<title>acrocentric_multigroup1&#45;&gt;chr13</title>
<path fill="none" stroke="#000000" d="M156.2243,-144.1563C123.3866,-114.4719 86.3175,-80.9622 60.9984,-58.0743"/>
<polygon fill="#000000" stroke="#000000" points="63.301,-55.4378 53.5356,-51.3282 58.6068,-60.6306 63.301,-55.4378"/>
</g>
<!-- chr14 -->
<g id="node5" class="node">
<title>chr14</title>
<ellipse fill="none" stroke="#000000" cx="109.5473" cy="-30.5473" rx="30.5947" ry="30.5947"/>
<text text-anchor="middle" x="109.5473" y="-26.8473" font-family="Times,serif" font-size="14.00" fill="#000000">chr14</text>
</g>
<!-- acrocentric_multigroup1&#45;&gt;chr14 -->
<g id="edge4" class="edge">
<title>acrocentric_multigroup1&#45;&gt;chr14</title>
<path fill="none" stroke="#000000" d="M174.4445,-128.1589C159.5652,-105.7789 144.2319,-82.7163 132.208,-64.6312"/>
<polygon fill="#000000" stroke="#000000" points="135.0389,-62.5674 126.5877,-56.1777 129.2097,-66.443 135.0389,-62.5674"/>
</g>
<!-- chr15 -->
<g id="node6" class="node">
<title>chr15</title>
<ellipse fill="none" stroke="#000000" cx="188.5473" cy="-30.5473" rx="30.5947" ry="30.5947"/>
<text text-anchor="middle" x="188.5473" y="-26.8473" font-family="Times,serif" font-size="14.00" fill="#000000">chr15</text>
</g>
<!-- acrocentric_multigroup1&#45;&gt;chr15 -->
<g id="edge5" class="edge">
<title>acrocentric_multigroup1&#45;&gt;chr15</title>
<path fill="none" stroke="#000000" d="M207.259,-114.2763C203.8141,-98.8614 200.4203,-83.6754 197.4889,-70.558"/>
<polygon fill="#000000" stroke="#000000" points="200.8417,-69.5127 195.2449,-60.5168 194.0102,-71.0394 200.8417,-69.5127"/>
</g>
<!-- chr21 -->
<g id="node7" class="node">
<title>chr21</title>
<ellipse fill="none" stroke="#000000" cx="267.5473" cy="-30.5473" rx="30.5947" ry="30.5947"/>
<text text-anchor="middle" x="267.5473" y="-26.8473" font-family="Times,serif" font-size="14.00" fill="#000000">chr21</text>
</g>
<!-- acrocentric_multigroup1&#45;&gt;chr21 -->
<g id="edge6" class="edge">
<title>acrocentric_multigroup1&#45;&gt;chr21</title>
<path fill="none" stroke="#000000" d="M249.3034,-114.2763C252.6622,-98.8614 255.9711,-83.6754 258.8292,-70.558"/>
<polygon fill="#000000" stroke="#000000" points="262.3079,-71.0327 261.0172,-60.5168 255.4684,-69.5424 262.3079,-71.0327"/>
</g>
<!-- chr22 -->
<g id="node8" class="node">
<title>chr22</title>
<ellipse fill="none" stroke="#000000" cx="346.5473" cy="-30.5473" rx="30.5947" ry="30.5947"/>
<text text-anchor="middle" x="346.5473" y="-26.8473" font-family="Times,serif" font-size="14.00" fill="#000000">chr22</text>
</g>
<!-- acrocentric_multigroup1&#45;&gt;chr22 -->
<g id="edge7" class="edge">
<title>acrocentric_multigroup1&#45;&gt;chr22</title>
<path fill="none" stroke="#000000" d="M282.3677,-127.8976C297.0982,-105.5537 312.2628,-82.5515 324.1503,-64.52"/>
<polygon fill="#000000" stroke="#000000" points="327.1243,-66.3676 329.7064,-56.0922 321.2801,-62.5147 327.1243,-66.3676"/>
</g>
<!-- chr1 -->
<g id="node10" class="node">
<title>chr1</title>
<ellipse fill="none" stroke="#000000" cx="421.5473" cy="-30.5473" rx="26.7961" ry="26.7961"/>
<text text-anchor="middle" x="421.5473" y="-26.8473" font-family="Times,serif" font-size="14.00" fill="#000000">chr1</text>
</g>
<!-- metacentric_multigroup1&#45;&gt;chr1 -->
<g id="edge9" class="edge">
<title>metacentric_multigroup1&#45;&gt;chr1</title>
<path fill="none" stroke="#000000" d="M534.4917,-139.8209C504.0473,-110.366 470.4927,-77.9019 447.9312,-56.0737"/>
<polygon fill="#000000" stroke="#000000" points="450.3423,-53.5365 440.7218,-49.0986 445.475,-58.5673 450.3423,-53.5365"/>
</g>
<!-- chr3 -->
<g id="node11" class="node">
<title>chr3</title>
<ellipse fill="none" stroke="#000000" cx="492.5473" cy="-30.5473" rx="26.7961" ry="26.7961"/>
<text text-anchor="middle" x="492.5473" y="-26.8473" font-family="Times,serif" font-size="14.00" fill="#000000">chr3</text>
</g>
<!-- metacentric_multigroup1&#45;&gt;chr3 -->
<g id="edge10" class="edge">
<title>metacentric_multigroup1&#45;&gt;chr3</title>
<path fill="none" stroke="#000000" d="M552.7187,-125.0202C538.3836,-102.5132 523.7802,-79.585 512.5502,-61.9532"/>
<polygon fill="#000000" stroke="#000000" points="515.3286,-59.8002 507.0044,-53.2459 509.4245,-63.5607 515.3286,-59.8002"/>
</g>
<!-- chr16 -->
<g id="node12" class="node">
<title>chr16</title>
<ellipse fill="none" stroke="#000000" cx="567.5473" cy="-30.5473" rx="30.5947" ry="30.5947"/>
<text text-anchor="middle" x="567.5473" y="-26.8473" font-family="Times,serif" font-size="14.00" fill="#000000">chr16</text>
</g>
<!-- metacentric_multigroup1&#45;&gt;chr16 -->
<g id="edge11" class="edge">
<title>metacentric_multigroup1&#45;&gt;chr16</title>
<path fill="none" stroke="#000000" d="M585.2215,-111.6618C582.0539,-97.1244 578.9512,-82.8844 576.2515,-70.4945"/>
<polygon fill="#000000" stroke="#000000" points="579.6348,-69.5818 574.086,-60.5562 572.7953,-71.0721 579.6348,-69.5818"/>
</g>
<!-- chr19 -->
<g id="node13" class="node">
<title>chr19</title>
<ellipse fill="none" stroke="#000000" cx="646.5473" cy="-30.5473" rx="30.5947" ry="30.5947"/>
<text text-anchor="middle" x="646.5473" y="-26.8473" font-family="Times,serif" font-size="14.00" fill="#000000">chr19</text>
</g>
<!-- metacentric_multigroup1&#45;&gt;chr19 -->
<g id="edge12" class="edge">
<title>metacentric_multigroup1&#45;&gt;chr19</title>
<path fill="none" stroke="#000000" d="M628.4198,-111.6618C631.6687,-97.1244 634.851,-82.8844 637.6199,-70.4945"/>
<polygon fill="#000000" stroke="#000000" points="641.0756,-71.0788 639.8409,-60.5562 634.2441,-69.5521 641.0756,-71.0788"/>
</g>
<!-- chr20 -->
<g id="node14" class="node">
<title>chr20</title>
<ellipse fill="none" stroke="#000000" cx="725.5473" cy="-30.5473" rx="30.5947" ry="30.5947"/>
<text text-anchor="middle" x="725.5473" y="-26.8473" font-family="Times,serif" font-size="14.00" fill="#000000">chr20</text>
</g>
<!-- metacentric_multigroup1&#45;&gt;chr20 -->
<g id="edge13" class="edge">
<title>metacentric_multigroup1&#45;&gt;chr20</title>
<path fill="none" stroke="#000000" d="M662.0407,-126.0672C676.3852,-104.4918 691.0416,-82.4471 702.6549,-64.9797"/>
<polygon fill="#000000" stroke="#000000" points="705.8107,-66.5546 708.4327,-56.2893 699.9815,-62.679 705.8107,-66.5546"/>
</g>
<!-- chr2 -->
<g id="node16" class="node">
<title>chr2</title>
<ellipse fill="none" stroke="#000000" cx="800.5473" cy="-30.5473" rx="26.7961" ry="26.7961"/>
<text text-anchor="middle" x="800.5473" y="-26.8473" font-family="Times,serif" font-size="14.00" fill="#000000">chr2</text>
</g>
<!-- submetacentric_multigroup1&#45;&gt;chr2 -->
<g id="edge15" class="edge">
<title>submetacentric_multigroup1&#45;&gt;chr2</title>
<path fill="none" stroke="#000000" d="M1016.9887,-163.2113C961.4635,-136.3584 892.7296,-100.1813 835.5473,-61.0946 833.1128,-59.4305 830.6598,-57.6187 828.2432,-55.7352"/>
<polygon fill="#000000" stroke="#000000" points="830.1958,-52.8097 820.2471,-49.1663 825.7523,-58.2185 830.1958,-52.8097"/>
</g>
<!-- chr4 -->
<g id="node17" class="node">
<title>chr4</title>
<ellipse fill="none" stroke="#000000" cx="871.5473" cy="-30.5473" rx="26.7961" ry="26.7961"/>
<text text-anchor="middle" x="871.5473" y="-26.8473" font-family="Times,serif" font-size="14.00" fill="#000000">chr4</text>
</g>
<!-- submetacentric_multigroup1&#45;&gt;chr4 -->
<g id="edge16" class="edge">
<title>submetacentric_multigroup1&#45;&gt;chr4</title>
<path fill="none" stroke="#000000" d="M1025.7002,-147.3846C988.0016,-121.5853 944.5552,-90.7824 906.5473,-61.0946 904.2233,-59.2794 901.8493,-57.3595 899.4868,-55.402"/>
<polygon fill="#000000" stroke="#000000" points="901.478,-52.5013 891.5891,-48.6986 896.9482,-57.8381 901.478,-52.5013"/>
</g>
<!-- chr5 -->
<g id="node18" class="node">
<title>chr5</title>
<ellipse fill="none" stroke="#000000" cx="942.5473" cy="-30.5473" rx="26.7961" ry="26.7961"/>
<text text-anchor="middle" x="942.5473" y="-26.8473" font-family="Times,serif" font-size="14.00" fill="#000000">chr5</text>
</g>
<!-- submetacentric_multigroup1&#45;&gt;chr5 -->
<g id="edge17" class="edge">
<title>submetacentric_multigroup1&#45;&gt;chr5</title>
<path fill="none" stroke="#000000" d="M1040.3659,-129.4642C1014.5256,-103.3338 987.6138,-76.1198 968.5742,-56.8664"/>
<polygon fill="#000000" stroke="#000000" points="970.9493,-54.2905 961.4291,-49.6411 965.972,-59.2126 970.9493,-54.2905"/>
</g>
<!-- chr6 -->
<g id="node19" class="node">
<title>chr6</title>
<ellipse fill="none" stroke="#000000" cx="1013.5473" cy="-30.5473" rx="26.7961" ry="26.7961"/>
<text text-anchor="middle" x="1013.5473" y="-26.8473" font-family="Times,serif" font-size="14.00" fill="#000000">chr6</text>
</g>
<!-- submetacentric_multigroup1&#45;&gt;chr6 -->
<g id="edge18" class="edge">
<title>submetacentric_multigroup1&#45;&gt;chr6</title>
<path fill="none" stroke="#000000" d="M1062.204,-112.707C1051.4798,-94.5985 1040.9943,-76.8933 1032.5199,-62.5836"/>
<polygon fill="#000000" stroke="#000000" points="1035.3662,-60.5211 1027.259,-53.7003 1029.3432,-64.0881 1035.3662,-60.5211"/>
</g>
<!-- chr7 -->
<g id="node20" class="node">
<title>chr7</title>
<ellipse fill="none" stroke="#000000" cx="1084.5473" cy="-30.5473" rx="26.7961" ry="26.7961"/>
<text text-anchor="middle" x="1084.5473" y="-26.8473" font-family="Times,serif" font-size="14.00" fill="#000000">chr7</text>
</g>
<!-- submetacentric_multigroup1&#45;&gt;chr7 -->
<g id="edge19" class="edge">
<title>submetacentric_multigroup1&#45;&gt;chr7</title>
<path fill="none" stroke="#000000" d="M1097.9291,-98.9809C1095.6836,-87.4976 1093.534,-76.5048 1091.6399,-66.8184"/>
<polygon fill="#000000" stroke="#000000" points="1095.0465,-66.0015 1089.6924,-56.8591 1088.1766,-67.3449 1095.0465,-66.0015"/>
</g>
<!-- chr8 -->
<g id="node21" class="node">
<title>chr8</title>
<ellipse fill="none" stroke="#000000" cx="1155.5473" cy="-30.5473" rx="26.7961" ry="26.7961"/>
<text text-anchor="middle" x="1155.5473" y="-26.8473" font-family="Times,serif" font-size="14.00" fill="#000000">chr8</text>
</g>
<!-- submetacentric_multigroup1&#45;&gt;chr8 -->
<g id="edge20" class="edge">
<title>submetacentric_multigroup1&#45;&gt;chr8</title>
<path fill="none" stroke="#000000" d="M1141.7317,-99.2366C1144.0482,-87.7194 1146.2668,-76.6889 1148.2222,-66.9667"/>
<polygon fill="#000000" stroke="#000000" points="1151.6923,-67.4634 1150.2329,-56.9695 1144.8298,-66.083 1151.6923,-67.4634"/>
</g>
<!-- chr9 -->
<g id="node22" class="node">
<title>chr9</title>
<ellipse fill="none" stroke="#000000" cx="1226.5473" cy="-30.5473" rx="26.7961" ry="26.7961"/>
<text text-anchor="middle" x="1226.5473" y="-26.8473" font-family="Times,serif" font-size="14.00" fill="#000000">chr9</text>
</g>
<!-- submetacentric_multigroup1&#45;&gt;chr9 -->
<g id="edge21" class="edge">
<title>submetacentric_multigroup1&#45;&gt;chr9</title>
<path fill="none" stroke="#000000" d="M1177.2753,-112.9684C1188.2063,-94.6833 1198.9004,-76.7944 1207.5171,-62.3807"/>
<polygon fill="#000000" stroke="#000000" points="1210.734,-63.8205 1212.861,-53.4414 1204.7257,-60.2287 1210.734,-63.8205"/>
</g>
<!-- chr10 -->
<g id="node23" class="node">
<title>chr10</title>
<ellipse fill="none" stroke="#000000" cx="1301.5473" cy="-30.5473" rx="30.5947" ry="30.5947"/>
<text text-anchor="middle" x="1301.5473" y="-26.8473" font-family="Times,serif" font-size="14.00" fill="#000000">chr10</text>
</g>
<!-- submetacentric_multigroup1&#45;&gt;chr10 -->
<g id="edge22" class="edge">
<title>submetacentric_multigroup1&#45;&gt;chr10</title>
<path fill="none" stroke="#000000" d="M1199.9049,-130.5071C1225.7429,-105.0968 1252.7414,-78.5453 1272.4137,-59.1987"/>
<polygon fill="#000000" stroke="#000000" points="1274.9011,-61.6613 1279.5769,-52.154 1269.9929,-56.6704 1274.9011,-61.6613"/>
</g>
<!-- chr11 -->
<g id="node24" class="node">
<title>chr11</title>
<ellipse fill="none" stroke="#000000" cx="1380.5473" cy="-30.5473" rx="30.5947" ry="30.5947"/>
<text text-anchor="middle" x="1380.5473" y="-26.8473" font-family="Times,serif" font-size="14.00" fill="#000000">chr11</text>
</g>
<!-- submetacentric_multigroup1&#45;&gt;chr11 -->
<g id="edge23" class="edge">
<title>submetacentric_multigroup1&#45;&gt;chr11</title>
<path fill="none" stroke="#000000" d="M1197.8576,-128.4297C1211.3785,-116.9426 1225.839,-106.0229 1240.5473,-97.0946 1281.2844,-72.366 1299.8045,-84.0848 1341.5473,-61.0946 1344.0899,-59.6942 1346.6399,-58.1322 1349.1512,-56.4754"/>
<polygon fill="#000000" stroke="#000000" points="1351.34,-59.214 1357.4733,-50.5749 1347.2913,-53.5037 1351.34,-59.214"/>
</g>
<!-- chr12 -->
<g id="node25" class="node">
<title>chr12</title>
<ellipse fill="none" stroke="#000000" cx="1459.5473" cy="-30.5473" rx="30.5947" ry="30.5947"/>
<text text-anchor="middle" x="1459.5473" y="-26.8473" font-family="Times,serif" font-size="14.00" fill="#000000">chr12</text>
</g>
<!-- submetacentric_multigroup1&#45;&gt;chr12 -->
<g id="edge24" class="edge">
<title>submetacentric_multigroup1&#45;&gt;chr12</title>
<path fill="none" stroke="#000000" d="M1196.1062,-127.0776C1209.9548,-115.6206 1224.9757,-105.0647 1240.5473,-97.0946 1313.1715,-59.923 1346.4214,-95.1732 1420.5473,-61.0946 1423.1846,-59.8821 1425.8044,-58.4584 1428.3654,-56.9002"/>
<polygon fill="#000000" stroke="#000000" points="1430.47,-59.702 1436.7865,-51.196 1426.5443,-53.9064 1430.47,-59.702"/>
</g>
<!-- chr17 -->
<g id="node26" class="node">
<title>chr17</title>
<ellipse fill="none" stroke="#000000" cx="1538.5473" cy="-30.5473" rx="30.5947" ry="30.5947"/>
<text text-anchor="middle" x="1538.5473" y="-26.8473" font-family="Times,serif" font-size="14.00" fill="#000000">chr17</text>
</g>
<!-- submetacentric_multigroup1&#45;&gt;chr17 -->
<g id="edge25" class="edge">
<title>submetacentric_multigroup1&#45;&gt;chr17</title>
<path fill="none" stroke="#000000" d="M1195.707,-126.2682C1209.6053,-114.9122 1224.7463,-104.5997 1240.5473,-97.0946 1345.5252,-47.2326 1392.5617,-106.4891 1499.5473,-61.0946 1502.2194,-59.9608 1504.8648,-58.595 1507.4441,-57.0781"/>
<polygon fill="#000000" stroke="#000000" points="1509.5112,-59.9069 1515.9015,-51.4562 1505.636,-54.0773 1509.5112,-59.9069"/>
</g>
<!-- chr18 -->
<g id="node27" class="node">
<title>chr18</title>
<ellipse fill="none" stroke="#000000" cx="1617.5473" cy="-30.5473" rx="30.5947" ry="30.5947"/>
<text text-anchor="middle" x="1617.5473" y="-26.8473" font-family="Times,serif" font-size="14.00" fill="#000000">chr18</text>
</g>
<!-- submetacentric_multigroup1&#45;&gt;chr18 -->
<g id="edge26" class="edge">
<title>submetacentric_multigroup1&#45;&gt;chr18</title>
<path fill="none" stroke="#000000" d="M1195.1593,-126.1046C1209.1763,-114.6927 1224.4977,-104.4053 1240.5473,-97.0946 1378.028,-34.4706 1438.55,-117.8703 1578.5473,-61.0946 1581.2372,-60.0037 1583.8957,-58.6695 1586.4843,-57.1751"/>
<polygon fill="#000000" stroke="#000000" points="1588.5304,-60.0186 1594.9604,-51.598 1584.6827,-54.1709 1588.5304,-60.0186"/>
</g>
<!-- chrX -->
<g id="node29" class="node">
<title>chrX</title>
<ellipse fill="none" stroke="#000000" cx="1278.5473" cy="-209.5346" rx="28.6953" ry="28.6953"/>
<text text-anchor="middle" x="1278.5473" y="-205.8346" font-family="Times,serif" font-size="14.00" fill="#000000">chrX</text>
</g>
<!-- sex_multigroup1&#45;&gt;chrX -->
<g id="edge28" class="edge">
<title>sex_multigroup1&#45;&gt;chrX</title>
<path fill="none" stroke="#000000" d="M1278.5473,-381.0988C1278.5473,-337.8848 1278.5473,-284.0199 1278.5473,-248.296"/>
<polygon fill="#000000" stroke="#000000" points="1282.0474,-248.2747 1278.5473,-238.2747 1275.0474,-248.2748 1282.0474,-248.2747"/>
</g>
<!-- chrY -->
<g id="node30" class="node">
<title>chrY</title>
<ellipse fill="none" stroke="#000000" cx="1353.5473" cy="-209.5346" rx="28.6953" ry="28.6953"/>
<text text-anchor="middle" x="1353.5473" y="-205.8346" font-family="Times,serif" font-size="14.00" fill="#000000">chrY</text>
</g>
<!-- sex_multigroup1&#45;&gt;chrY -->
<g id="edge29" class="edge">
<title>sex_multigroup1&#45;&gt;chrY</title>
<path fill="none" stroke="#000000" d="M1299.2399,-384.3188C1313.032,-339.9301 1330.6485,-283.2326 1342.0138,-246.6541"/>
<polygon fill="#000000" stroke="#000000" points="1345.4204,-247.4858 1345.0453,-236.8976 1338.7357,-245.4087 1345.4204,-247.4858"/>
</g>
</g>
</svg>
