<?xml version="1.0" encoding="UTF-8" standalone="no"?>
<!DOCTYPE svg PUBLIC "-//W3C//DTD SVG 1.1//EN"
 "http://www.w3.org/Graphics/SVG/1.1/DTD/svg11.dtd">
<!-- Generated by graphviz version 2.40.1 (0)
 -->
<!-- Title: Tree Pages: 1 -->
<svg width="440pt" height="299pt"
 viewBox="0.00 0.00 439.54 298.78" xmlns="http://www.w3.org/2000/svg" xmlns:xlink="http://www.w3.org/1999/xlink">
<g id="graph0" class="graph" transform="scale(1 1) rotate(0) translate(4 294.7774)">
<title>Tree</title>
<polygon fill="#ffffff" stroke="transparent" points="-4,4 -4,-294.7774 435.5381,-294.7774 435.5381,4 -4,4"/>
<!-- categorized -->
<g id="node1" class="node">
<title>categorized</title>
<ellipse fill="none" stroke="#000000" cx="196.8449" cy="-240.0819" rx="50.8918" ry="50.8918"/>
<text text-anchor="middle" x="196.8449" y="-236.3819" font-family="Times,serif" font-size="14.00" fill="#000000">categorized</text>
</g>
<!-- exon_specific -->
<g id="node2" class="node">
<title>exon_specific</title>
<ellipse fill="none" stroke="#000000" cx="57.8449" cy="-76.6932" rx="57.6901" ry="57.6901"/>
<text text-anchor="middle" x="57.8449" y="-72.9932" font-family="Times,serif" font-size="14.00" fill="#000000">exon_specific</text>
</g>
<!-- categorized&#45;&gt;exon_specific -->
<g id="edge1" class="edge">
<title>categorized&#45;&gt;exon_specific</title>
<path fill="none" stroke="#000000" d="M163.9038,-201.3611C145.439,-179.6565 122.1613,-152.2945 102.1209,-128.7378"/>
<polygon fill="#000000" stroke="#000000" points="104.6059,-126.2573 95.4603,-120.9085 99.2742,-130.7931 104.6059,-126.2573"/>
</g>
<!-- intron_specific -->
<g id="node3" class="node">
<title>intron_specific</title>
<ellipse fill="none" stroke="#000000" cx="196.8449" cy="-76.6932" rx="63.0888" ry="63.0888"/>
<text text-anchor="middle" x="196.8449" y="-72.9932" font-family="Times,serif" font-size="14.00" fill="#000000">intron_specific</text>
</g>
<!-- categorized&#45;&gt;intron_specific -->
<g id="edge2" class="edge">
<title>categorized&#45;&gt;intron_specific</title>
<path fill="none" stroke="#000000" d="M196.8449,-189.2803C196.8449,-176.8138 196.8449,-163.2218 196.8449,-149.9315"/>
<polygon fill="#000000" stroke="#000000" points="200.345,-149.8507 196.8449,-139.8507 193.345,-149.8508 200.345,-149.8507"/>
</g>
<!-- intergenic_specific -->
<g id="node4" class="node">
<title>intergenic_specific</title>
<ellipse fill="none" stroke="#000000" cx="354.8449" cy="-76.6932" rx="76.8869" ry="76.8869"/>
<text text-anchor="middle" x="354.8449" y="-72.9932" font-family="Times,serif" font-size="14.00" fill="#000000">intergenic_specific</text>
</g>
<!-- categorized&#45;&gt;intergenic_specific -->
<g id="edge3" class="edge">
<title>categorized&#45;&gt;intergenic_specific</title>
<path fill="none" stroke="#000000" d="M232.3032,-203.4143C250.6136,-184.4793 273.4625,-160.8512 294.4529,-139.1448"/>
<polygon fill="#000000" stroke="#000000" points="297.0554,-141.4885 301.491,-131.8668 292.0234,-136.6224 297.0554,-141.4885"/>
</g>
</g>
</svg>
