<?xml version="1.0" encoding="UTF-8" standalone="no"?>
<!DOCTYPE svg PUBLIC "-//W3C//DTD SVG 1.1//EN"
 "http://www.w3.org/Graphics/SVG/1.1/DTD/svg11.dtd">
<!-- Generated by graphviz version 2.40.1 (0)
 -->
<!-- Title: Tree Pages: 1 -->
<svg width="498pt" height="360pt"
 viewBox="0.00 0.00 497.94 360.00" xmlns="http://www.w3.org/2000/svg" xmlns:xlink="http://www.w3.org/1999/xlink">
<g id="graph0" class="graph" transform="scale(.3957 .3957) rotate(0) translate(4 905.8328)">
<title>Tree</title>
<polygon fill="#ffffff" stroke="transparent" points="-4,4 -4,-905.8328 1254.4389,-905.8328 1254.4389,4 -4,4"/>
<!-- categorized -->
<g id="node1" class="node">
<title>categorized</title>
<ellipse fill="none" stroke="#000000" cx="651.9942" cy="-851.1373" rx="50.8918" ry="50.8918"/>
<text text-anchor="middle" x="651.9942" y="-847.4373" font-family="Times,serif" font-size="14.00" fill="#000000">categorized</text>
</g>
<!-- arm_multigroup1 -->
<g id="node2" class="node">
<title>arm_multigroup1</title>
<ellipse fill="none" stroke="#000000" cx="212.9942" cy="-665.6505" rx="72.5877" ry="72.5877"/>
<text text-anchor="middle" x="212.9942" y="-661.9505" font-family="Times,serif" font-size="14.00" fill="#000000">arm_multigroup1</text>
</g>
<!-- categorized&#45;&gt;arm_multigroup1 -->
<g id="edge1" class="edge">
<title>categorized&#45;&gt;arm_multigroup1</title>
<path fill="none" stroke="#000000" d="M605.0135,-831.2869C529.6017,-799.4238 380.7976,-736.551 289.7813,-698.0947"/>
<polygon fill="#000000" stroke="#000000" points="290.915,-694.7741 280.3413,-694.1061 288.1905,-701.2222 290.915,-694.7741"/>
</g>
<!-- centromere_multigroup1 -->
<g id="node5" class="node">
<title>centromere_multigroup1</title>
<ellipse fill="none" stroke="#000000" cx="651.9942" cy="-665.6505" rx="98.5829" ry="98.5829"/>
<text text-anchor="middle" x="651.9942" y="-661.9505" font-family="Times,serif" font-size="14.00" fill="#000000">centromere_multigroup1</text>
</g>
<!-- categorized&#45;&gt;centromere_multigroup1 -->
<g id="edge4" class="edge">
<title>categorized&#45;&gt;centromere_multigroup1</title>
<path fill="none" stroke="#000000" d="M651.9942,-799.9612C651.9942,-792.0226 651.9942,-783.5718 651.9942,-774.9227"/>
<polygon fill="#000000" stroke="#000000" points="655.4943,-774.6972 651.9942,-764.6972 648.4943,-774.6973 655.4943,-774.6972"/>
</g>
<!-- rDNA_specific -->
<g id="node22" class="node">
<title>rDNA_specific</title>
<ellipse fill="none" stroke="#000000" cx="831.9942" cy="-665.6505" rx="63.8893" ry="63.8893"/>
<text text-anchor="middle" x="831.9942" y="-661.9505" font-family="Times,serif" font-size="14.00" fill="#000000">rDNA_specific</text>
</g>
<!-- categorized&#45;&gt;rDNA_specific -->
<g id="edge21" class="edge">
<title>categorized&#45;&gt;rDNA_specific</title>
<path fill="none" stroke="#000000" d="M693.6615,-821.795C714.6812,-806.0064 739.9073,-785.4874 759.9942,-764.4418 770.8124,-753.1073 781.379,-740.0939 790.9395,-727.3127"/>
<polygon fill="#000000" stroke="#000000" points="793.9704,-729.0986 797.0693,-718.9671 788.3287,-724.9548 793.9704,-729.0986"/>
</g>
<!-- p_arm_specific -->
<g id="node3" class="node">
<title>p_arm_specific</title>
<ellipse fill="none" stroke="#000000" cx="64.9942" cy="-458.0657" rx="64.9885" ry="64.9885"/>
<text text-anchor="middle" x="64.9942" y="-454.3657" font-family="Times,serif" font-size="14.00" fill="#000000">p_arm_specific</text>
</g>
<!-- arm_multigroup1&#45;&gt;p_arm_specific -->
<g id="edge2" class="edge">
<title>arm_multigroup1&#45;&gt;p_arm_specific</title>
<path fill="none" stroke="#000000" d="M170.5834,-606.1651C151.231,-579.0214 128.3302,-546.9007 108.8107,-519.5228"/>
<polygon fill="#000000" stroke="#000000" points="111.5244,-517.2998 102.8692,-511.1892 105.8246,-521.3635 111.5244,-517.2998"/>
</g>
<!-- q_arm_specific -->
<g id="node4" class="node">
<title>q_arm_specific</title>
<ellipse fill="none" stroke="#000000" cx="212.9942" cy="-458.0657" rx="64.9885" ry="64.9885"/>
<text text-anchor="middle" x="212.9942" y="-454.3657" font-family="Times,serif" font-size="14.00" fill="#000000">q_arm_specific</text>
</g>
<!-- arm_multigroup1&#45;&gt;q_arm_specific -->
<g id="edge3" class="edge">
<title>arm_multigroup1&#45;&gt;q_arm_specific</title>
<path fill="none" stroke="#000000" d="M212.9942,-592.7558C212.9942,-573.4562 212.9942,-552.5884 212.9942,-533.1737"/>
<polygon fill="#000000" stroke="#000000" points="216.4943,-533.1695 212.9942,-523.1695 209.4943,-533.1696 216.4943,-533.1695"/>
</g>
<!-- asat_multigroup1 -->
<g id="node6" class="node">
<title>asat_multigroup1</title>
<ellipse fill="none" stroke="#000000" cx="367.9942" cy="-458.0657" rx="72.2875" ry="72.2875"/>
<text text-anchor="middle" x="367.9942" y="-454.3657" font-family="Times,serif" font-size="14.00" fill="#000000">asat_multigroup1</text>
</g>
<!-- centromere_multigroup1&#45;&gt;asat_multigroup1 -->
<g id="edge5" class="edge">
<title>centromere_multigroup1&#45;&gt;asat_multigroup1</title>
<path fill="none" stroke="#000000" d="M567.6133,-613.5479C530.377,-589.5664 486.6179,-560.0062 448.9942,-530.8593 442.3337,-525.6994 435.5377,-520.1302 428.855,-514.4505"/>
<polygon fill="#000000" stroke="#000000" points="430.938,-511.6253 421.0772,-507.7502 426.3692,-516.9287 430.938,-511.6253"/>
</g>
<!-- bsat_specific -->
<g id="node12" class="node">
<title>bsat_specific</title>
<ellipse fill="none" stroke="#000000" cx="513.9942" cy="-458.0657" rx="55.7903" ry="55.7903"/>
<text text-anchor="middle" x="513.9942" y="-454.3657" font-family="Times,serif" font-size="14.00" fill="#000000">bsat_specific</text>
</g>
<!-- centromere_multigroup1&#45;&gt;bsat_specific -->
<g id="edge11" class="edge">
<title>centromere_multigroup1&#45;&gt;bsat_specific</title>
<path fill="none" stroke="#000000" d="M597.2548,-583.3094C581.5766,-559.7257 564.8713,-534.5969 550.5709,-513.0857"/>
<polygon fill="#000000" stroke="#000000" points="553.4621,-511.1126 545.0111,-504.7225 547.6327,-514.988 553.4621,-511.1126"/>
</g>
<!-- censat_specific -->
<g id="node13" class="node">
<title>censat_specific</title>
<ellipse fill="none" stroke="#000000" cx="651.9942" cy="-458.0657" rx="63.8893" ry="63.8893"/>
<text text-anchor="middle" x="651.9942" y="-454.3657" font-family="Times,serif" font-size="14.00" fill="#000000">censat_specific</text>
</g>
<!-- centromere_multigroup1&#45;&gt;censat_specific -->
<g id="edge12" class="edge">
<title>centromere_multigroup1&#45;&gt;censat_specific</title>
<path fill="none" stroke="#000000" d="M651.9942,-566.7218C651.9942,-555.049 651.9942,-543.2941 651.9942,-532.0491"/>
<polygon fill="#000000" stroke="#000000" points="655.4943,-531.8825 651.9942,-521.8826 648.4943,-531.8826 655.4943,-531.8825"/>
</g>
<!-- ct_specific -->
<g id="node14" class="node">
<title>ct_specific</title>
<ellipse fill="none" stroke="#000000" cx="781.9942" cy="-458.0657" rx="48.1917" ry="48.1917"/>
<text text-anchor="middle" x="781.9942" y="-454.3657" font-family="Times,serif" font-size="14.00" fill="#000000">ct_specific</text>
</g>
<!-- centromere_multigroup1&#45;&gt;ct_specific -->
<g id="edge13" class="edge">
<title>centromere_multigroup1&#45;&gt;ct_specific</title>
<path fill="none" stroke="#000000" d="M704.4955,-581.8162C720.2969,-556.5844 737.1224,-529.7173 751.0442,-507.487"/>
<polygon fill="#000000" stroke="#000000" points="754.0842,-509.2269 756.4256,-498.8939 748.1516,-505.5115 754.0842,-509.2269"/>
</g>
<!-- gsat_specific -->
<g id="node15" class="node">
<title>gsat_specific</title>
<ellipse fill="none" stroke="#000000" cx="903.9942" cy="-458.0657" rx="55.7903" ry="55.7903"/>
<text text-anchor="middle" x="903.9942" y="-454.3657" font-family="Times,serif" font-size="14.00" fill="#000000">gsat_specific</text>
</g>
<!-- centromere_multigroup1&#45;&gt;gsat_specific -->
<g id="edge14" class="edge">
<title>centromere_multigroup1&#45;&gt;gsat_specific</title>
<path fill="none" stroke="#000000" d="M721.8634,-595.3089C733.7398,-585.0975 746.34,-575.2259 758.9942,-566.8593 791.5178,-545.3555 807.5441,-553.9047 838.9942,-530.8593 847.1941,-524.8507 855.1209,-517.66 862.4521,-510.1713"/>
<polygon fill="#000000" stroke="#000000" points="865.2611,-512.2939 869.5728,-502.6161 860.1671,-507.4928 865.2611,-512.2939"/>
</g>
<!-- hsat_multigroup1 -->
<g id="node16" class="node">
<title>hsat_multigroup1</title>
<ellipse fill="none" stroke="#000000" cx="1050.9942" cy="-458.0657" rx="72.5877" ry="72.5877"/>
<text text-anchor="middle" x="1050.9942" y="-454.3657" font-family="Times,serif" font-size="14.00" fill="#000000">hsat_multigroup1</text>
</g>
<!-- centromere_multigroup1&#45;&gt;hsat_multigroup1 -->
<g id="edge15" class="edge">
<title>centromere_multigroup1&#45;&gt;hsat_multigroup1</title>
<path fill="none" stroke="#000000" d="M719.2794,-593.122C731.6229,-583.0005 745.0451,-573.7296 758.9942,-566.8593 843.9441,-525.0188 883.6396,-571.8679 968.9942,-530.8593 976.8872,-527.0671 984.5912,-522.2874 991.9193,-516.9975"/>
<polygon fill="#000000" stroke="#000000" points="994.5058,-519.427 1000.3381,-510.5819 990.2629,-513.8594 994.5058,-519.427"/>
</g>
<!-- hor_multigroup1 -->
<g id="node7" class="node">
<title>hor_multigroup1</title>
<ellipse fill="none" stroke="#000000" cx="282.9942" cy="-266.0796" rx="70.3881" ry="70.3881"/>
<text text-anchor="middle" x="282.9942" y="-262.3796" font-family="Times,serif" font-size="14.00" fill="#000000">hor_multigroup1</text>
</g>
<!-- asat_multigroup1&#45;&gt;hor_multigroup1 -->
<g id="edge6" class="edge">
<title>asat_multigroup1&#45;&gt;hor_multigroup1</title>
<path fill="none" stroke="#000000" d="M338.7421,-391.995C331.2866,-375.1556 323.2268,-356.9512 315.6146,-339.7579"/>
<polygon fill="#000000" stroke="#000000" points="318.6871,-338.0521 311.4383,-330.3252 312.2864,-340.886 318.6871,-338.0521"/>
</g>
<!-- monomeric_specific -->
<g id="node11" class="node">
<title>monomeric_specific</title>
<ellipse fill="none" stroke="#000000" cx="453.9942" cy="-266.0796" rx="83.3857" ry="83.3857"/>
<text text-anchor="middle" x="453.9942" y="-262.3796" font-family="Times,serif" font-size="14.00" fill="#000000">monomeric_specific</text>
</g>
<!-- asat_multigroup1&#45;&gt;monomeric_specific -->
<g id="edge10" class="edge">
<title>asat_multigroup1&#45;&gt;monomeric_specific</title>
<path fill="none" stroke="#000000" d="M397.5906,-391.995C403.4332,-378.9519 409.6426,-365.0899 415.7243,-351.5132"/>
<polygon fill="#000000" stroke="#000000" points="419.0143,-352.7301 419.9083,-342.173 412.626,-349.8684 419.0143,-352.7301"/>
</g>
<!-- active_specific -->
<g id="node8" class="node">
<title>active_specific</title>
<ellipse fill="none" stroke="#000000" cx="129.9942" cy="-73.4435" rx="61.99" ry="61.99"/>
<text text-anchor="middle" x="129.9942" y="-69.7435" font-family="Times,serif" font-size="14.00" fill="#000000">active_specific</text>
</g>
<!-- hor_multigroup1&#45;&gt;active_specific -->
<g id="edge7" class="edge">
<title>hor_multigroup1&#45;&gt;active_specific</title>
<path fill="none" stroke="#000000" d="M239.1506,-210.8778C219.0713,-185.5968 195.2968,-155.6633 175.0699,-130.1964"/>
<polygon fill="#000000" stroke="#000000" points="177.5968,-127.7503 168.6366,-122.0965 172.1153,-132.1039 177.5968,-127.7503"/>
</g>
<!-- divergent_specific -->
<g id="node9" class="node">
<title>divergent_specific</title>
<ellipse fill="none" stroke="#000000" cx="282.9942" cy="-73.4435" rx="73.387" ry="73.387"/>
<text text-anchor="middle" x="282.9942" y="-69.7435" font-family="Times,serif" font-size="14.00" fill="#000000">divergent_specific</text>
</g>
<!-- hor_multigroup1&#45;&gt;divergent_specific -->
<g id="edge8" class="edge">
<title>hor_multigroup1&#45;&gt;divergent_specific</title>
<path fill="none" stroke="#000000" d="M282.9942,-195.7158C282.9942,-183.2491 282.9942,-170.1556 282.9942,-157.359"/>
<polygon fill="#000000" stroke="#000000" points="286.4943,-157.1777 282.9942,-147.1777 279.4943,-157.1778 286.4943,-157.1777"/>
</g>
<!-- inactive_specific -->
<g id="node10" class="node">
<title>inactive_specific</title>
<ellipse fill="none" stroke="#000000" cx="442.9942" cy="-73.4435" rx="68.7879" ry="68.7879"/>
<text text-anchor="middle" x="442.9942" y="-69.7435" font-family="Times,serif" font-size="14.00" fill="#000000">inactive_specific</text>
</g>
<!-- hor_multigroup1&#45;&gt;inactive_specific -->
<g id="edge9" class="edge">
<title>hor_multigroup1&#45;&gt;inactive_specific</title>
<path fill="none" stroke="#000000" d="M327.9889,-211.9071C348.0058,-187.8073 371.6646,-159.3226 392.3034,-134.474"/>
<polygon fill="#000000" stroke="#000000" points="395.1928,-136.4731 398.8897,-126.5442 389.8079,-132.0006 395.1928,-136.4731"/>
</g>
<!-- hsat1_multigroup1 -->
<g id="node17" class="node">
<title>hsat1_multigroup1</title>
<ellipse fill="none" stroke="#000000" cx="894.9942" cy="-266.0796" rx="77.1866" ry="77.1866"/>
<text text-anchor="middle" x="894.9942" y="-262.3796" font-family="Times,serif" font-size="14.00" fill="#000000">hsat1_multigroup1</text>
</g>
<!-- hsat_multigroup1&#45;&gt;hsat1_multigroup1 -->
<g id="edge16" class="edge">
<title>hsat_multigroup1&#45;&gt;hsat1_multigroup1</title>
<path fill="none" stroke="#000000" d="M1005.0328,-401.502C987.9032,-380.4208 968.2783,-356.2689 950.3897,-334.2537"/>
<polygon fill="#000000" stroke="#000000" points="952.9081,-331.8029 943.8855,-326.2491 947.4754,-336.2172 952.9081,-331.8029"/>
</g>
<!-- hsat2_specific -->
<g id="node20" class="node">
<title>hsat2_specific</title>
<ellipse fill="none" stroke="#000000" cx="1050.9942" cy="-266.0796" rx="60.3893" ry="60.3893"/>
<text text-anchor="middle" x="1050.9942" y="-262.3796" font-family="Times,serif" font-size="14.00" fill="#000000">hsat2_specific</text>
</g>
<!-- hsat_multigroup1&#45;&gt;hsat2_specific -->
<g id="edge19" class="edge">
<title>hsat_multigroup1&#45;&gt;hsat2_specific</title>
<path fill="none" stroke="#000000" d="M1050.9942,-385.2103C1050.9942,-369.3733 1050.9942,-352.6429 1050.9942,-336.8866"/>
<polygon fill="#000000" stroke="#000000" points="1054.4943,-336.6923 1050.9942,-326.6924 1047.4943,-336.6924 1054.4943,-336.6923"/>
</g>
<!-- hsat3_specific -->
<g id="node21" class="node">
<title>hsat3_specific</title>
<ellipse fill="none" stroke="#000000" cx="1189.9942" cy="-266.0796" rx="60.3893" ry="60.3893"/>
<text text-anchor="middle" x="1189.9942" y="-262.3796" font-family="Times,serif" font-size="14.00" fill="#000000">hsat3_specific</text>
</g>
<!-- hsat_multigroup1&#45;&gt;hsat3_specific -->
<g id="edge20" class="edge">
<title>hsat_multigroup1&#45;&gt;hsat3_specific</title>
<path fill="none" stroke="#000000" d="M1093.833,-398.897C1111.2437,-374.8494 1131.2856,-347.1676 1148.5513,-323.3204"/>
<polygon fill="#000000" stroke="#000000" points="1151.5042,-325.21 1154.5337,-315.0575 1145.8342,-321.1049 1151.5042,-325.21"/>
</g>
<!-- hsat1A_specific -->
<g id="node18" class="node">
<title>hsat1A_specific</title>
<ellipse fill="none" stroke="#000000" cx="819.9942" cy="-73.4435" rx="66.8882" ry="66.8882"/>
<text text-anchor="middle" x="819.9942" y="-69.7435" font-family="Times,serif" font-size="14.00" fill="#000000">hsat1A_specific</text>
</g>
<!-- hsat1_multigroup1&#45;&gt;hsat1A_specific -->
<g id="edge17" class="edge">
<title>hsat1_multigroup1&#45;&gt;hsat1A_specific</title>
<path fill="none" stroke="#000000" d="M866.8536,-193.8009C860.7266,-178.0638 854.2435,-161.412 848.1171,-145.6766"/>
<polygon fill="#000000" stroke="#000000" points="851.2448,-144.0627 844.3551,-136.0139 844.7217,-146.6024 851.2448,-144.0627"/>
</g>
<!-- hsat1B_specific -->
<g id="node19" class="node">
<title>hsat1B_specific</title>
<ellipse fill="none" stroke="#000000" cx="970.9942" cy="-73.4435" rx="66.0889" ry="66.0889"/>
<text text-anchor="middle" x="970.9942" y="-69.7435" font-family="Times,serif" font-size="14.00" fill="#000000">hsat1B_specific</text>
</g>
<!-- hsat1_multigroup1&#45;&gt;hsat1B_specific -->
<g id="edge18" class="edge">
<title>hsat1_multigroup1&#45;&gt;hsat1B_specific</title>
<path fill="none" stroke="#000000" d="M923.4019,-194.0751C929.7811,-177.9057 936.5463,-160.7582 942.9121,-144.6227"/>
<polygon fill="#000000" stroke="#000000" points="946.1939,-145.8411 946.6082,-135.2544 939.6824,-143.2721 946.1939,-145.8411"/>
</g>
</g>
</svg>
