<?xml version="1.0" encoding="UTF-8" standalone="no"?>
<!DOCTYPE svg PUBLIC "-//W3C//DTD SVG 1.1//EN"
 "http://www.w3.org/Graphics/SVG/1.1/DTD/svg11.dtd">
<!-- Generated by graphviz version 2.40.1 (0)
 -->
<!-- Title: Tree Pages: 1 -->
<svg width="534pt" height="360pt"
 viewBox="0.00 0.00 534.35 360.00" xmlns="http://www.w3.org/2000/svg" xmlns:xlink="http://www.w3.org/1999/xlink">
<g id="graph0" class="graph" transform="scale(.724 .724) rotate(0) translate(4 493.263)">
<title>Tree</title>
<polygon fill="#ffffff" stroke="transparent" points="-4,4 -4,-493.263 734.09,-493.263 734.09,4 -4,4"/>
<!-- categorized -->
<g id="node1" class="node">
<title>categorized</title>
<ellipse fill="none" stroke="#000000" cx="443.3454" cy="-438.5675" rx="50.8918" ry="50.8918"/>
<text text-anchor="middle" x="443.3454" y="-434.8675" font-family="Times,serif" font-size="14.00" fill="#000000">categorized</text>
</g>
<!-- array_multigroup1 -->
<g id="node2" class="node">
<title>array_multigroup1</title>
<ellipse fill="none" stroke="#000000" cx="170.3454" cy="-257.6303" rx="76.0865" ry="76.0865"/>
<text text-anchor="middle" x="170.3454" y="-253.9303" font-family="Times,serif" font-size="14.00" fill="#000000">array_multigroup1</text>
</g>
<!-- categorized&#45;&gt;array_multigroup1 -->
<g id="edge1" class="edge">
<title>categorized&#45;&gt;array_multigroup1</title>
<path fill="none" stroke="#000000" d="M394.8752,-422.4291C355.0869,-407.778 298.476,-383.6173 255.3454,-351.872 244.7401,-344.0662 234.4538,-334.7685 224.9156,-325.1011"/>
<polygon fill="#000000" stroke="#000000" points="227.2224,-322.4498 217.7747,-317.6549 222.1702,-327.2949 227.2224,-322.4498"/>
</g>
<!-- nonacrocentric_specific -->
<g id="node6" class="node">
<title>nonacrocentric_specific</title>
<ellipse fill="none" stroke="#000000" cx="358.3454" cy="-257.6303" rx="94.4839" ry="94.4839"/>
<text text-anchor="middle" x="358.3454" y="-253.9303" font-family="Times,serif" font-size="14.00" fill="#000000">nonacrocentric_specific</text>
</g>
<!-- categorized&#45;&gt;nonacrocentric_specific -->
<g id="edge5" class="edge">
<title>categorized&#45;&gt;nonacrocentric_specific</title>
<path fill="none" stroke="#000000" d="M421.6764,-392.4412C415.8663,-380.0734 409.3661,-366.2366 402.8035,-352.267"/>
<polygon fill="#000000" stroke="#000000" points="405.9084,-350.6447 398.4886,-343.0819 399.5727,-353.6211 405.9084,-350.6447"/>
</g>
<!-- PHR_specific -->
<g id="node7" class="node">
<title>PHR_specific</title>
<ellipse fill="none" stroke="#000000" cx="529.3454" cy="-257.6303" rx="59.2899" ry="59.2899"/>
<text text-anchor="middle" x="529.3454" y="-253.9303" font-family="Times,serif" font-size="14.00" fill="#000000">PHR_specific</text>
</g>
<!-- categorized&#45;&gt;PHR_specific -->
<g id="edge6" class="edge">
<title>categorized&#45;&gt;PHR_specific</title>
<path fill="none" stroke="#000000" d="M465.2694,-392.4412C475.6815,-370.5349 488.2841,-344.0202 499.5481,-320.3216"/>
<polygon fill="#000000" stroke="#000000" points="502.823,-321.5846 503.9547,-311.0504 496.5008,-318.5796 502.823,-321.5846"/>
</g>
<!-- SST1_specific -->
<g id="node8" class="node">
<title>SST1_specific</title>
<ellipse fill="none" stroke="#000000" cx="668.3454" cy="-257.6303" rx="61.99" ry="61.99"/>
<text text-anchor="middle" x="668.3454" y="-253.9303" font-family="Times,serif" font-size="14.00" fill="#000000">SST1_specific</text>
</g>
<!-- categorized&#45;&gt;SST1_specific -->
<g id="edge7" class="edge">
<title>categorized&#45;&gt;SST1_specific</title>
<path fill="none" stroke="#000000" d="M489.986,-418.5586C522.3024,-403.2708 565.1375,-380.0599 597.3454,-351.872 608.6177,-342.0066 619.2434,-330.0878 628.6721,-318.0936"/>
<polygon fill="#000000" stroke="#000000" points="631.7157,-319.8746 635.0016,-309.8021 626.1517,-315.627 631.7157,-319.8746"/>
</g>
<!-- DJ_specific -->
<g id="node3" class="node">
<title>DJ_specific</title>
<ellipse fill="none" stroke="#000000" cx="51.3454" cy="-63.6943" rx="51.1914" ry="51.1914"/>
<text text-anchor="middle" x="51.3454" y="-59.9943" font-family="Times,serif" font-size="14.00" fill="#000000">DJ_specific</text>
</g>
<!-- array_multigroup1&#45;&gt;DJ_specific -->
<g id="edge2" class="edge">
<title>array_multigroup1&#45;&gt;DJ_specific</title>
<path fill="none" stroke="#000000" d="M130.5547,-192.7828C115.3369,-167.9821 98.1799,-140.0212 83.7347,-116.4795"/>
<polygon fill="#000000" stroke="#000000" points="86.554,-114.382 78.3408,-107.6891 80.5877,-118.043 86.554,-114.382"/>
</g>
<!-- PJ_specific -->
<g id="node4" class="node">
<title>PJ_specific</title>
<ellipse fill="none" stroke="#000000" cx="170.3454" cy="-63.6943" rx="50.0912" ry="50.0912"/>
<text text-anchor="middle" x="170.3454" y="-59.9943" font-family="Times,serif" font-size="14.00" fill="#000000">PJ_specific</text>
</g>
<!-- array_multigroup1&#45;&gt;PJ_specific -->
<g id="edge3" class="edge">
<title>array_multigroup1&#45;&gt;PJ_specific</title>
<path fill="none" stroke="#000000" d="M170.3454,-181.5383C170.3454,-162.4661 170.3454,-142.2629 170.3454,-124.0727"/>
<polygon fill="#000000" stroke="#000000" points="173.8455,-123.9076 170.3454,-113.9076 166.8455,-123.9077 173.8455,-123.9076"/>
</g>
<!-- rDNA_specific -->
<g id="node5" class="node">
<title>rDNA_specific</title>
<ellipse fill="none" stroke="#000000" cx="302.3454" cy="-63.6943" rx="63.8893" ry="63.8893"/>
<text text-anchor="middle" x="302.3454" y="-59.9943" font-family="Times,serif" font-size="14.00" fill="#000000">rDNA_specific</text>
</g>
<!-- array_multigroup1&#45;&gt;rDNA_specific -->
<g id="edge4" class="edge">
<title>array_multigroup1&#45;&gt;rDNA_specific</title>
<path fill="none" stroke="#000000" d="M213.2021,-194.6649C228.4215,-172.3043 245.5208,-147.1818 260.6425,-124.9649"/>
<polygon fill="#000000" stroke="#000000" points="263.5997,-126.8403 266.3331,-116.6041 257.813,-122.9016 263.5997,-126.8403"/>
</g>
</g>
</svg>
