<?xml version="1.0" encoding="UTF-8" standalone="no"?>
<!DOCTYPE svg PUBLIC "-//W3C//DTD SVG 1.1//EN"
 "http://www.w3.org/Graphics/SVG/1.1/DTD/svg11.dtd">
<!-- Generated by graphviz version 2.40.1 (0)
 -->
<!-- Title: Tree Pages: 1 -->
<svg width="467pt" height="360pt"
 viewBox="0.00 0.00 466.51 360.00" xmlns="http://www.w3.org/2000/svg" xmlns:xlink="http://www.w3.org/1999/xlink">
<g id="graph0" class="graph" transform="scale(.5522 .5522) rotate(0) translate(4 647.9493)">
<title>Tree</title>
<polygon fill="#ffffff" stroke="transparent" points="-4,4 -4,-647.9493 840.8345,-647.9493 840.8345,4 -4,4"/>
<!-- categorized -->
<g id="node1" class="node">
<title>categorized</title>
<ellipse fill="none" stroke="#000000" cx="341.1401" cy="-593.2537" rx="50.8918" ry="50.8918"/>
<text text-anchor="middle" x="341.1401" y="-589.5537" font-family="Times,serif" font-size="14.00" fill="#000000">categorized</text>
</g>
<!-- canonical_telomere_specific -->
<g id="node2" class="node">
<title>canonical_telomere_specific</title>
<ellipse fill="none" stroke="#000000" cx="111.1401" cy="-395.4181" rx="111.2805" ry="111.2805"/>
<text text-anchor="middle" x="111.1401" y="-391.7181" font-family="Times,serif" font-size="14.00" fill="#000000">canonical_telomere_specific</text>
</g>
<!-- categorized&#45;&gt;canonical_telomere_specific -->
<g id="edge1" class="edge">
<title>categorized&#45;&gt;canonical_telomere_specific</title>
<path fill="none" stroke="#000000" d="M300.551,-562.5035C279.5154,-546.2579 253.5971,-525.7545 231.1401,-506.5582 220.8056,-497.7242 210.1392,-488.307 199.6267,-478.8338"/>
<polygon fill="#000000" stroke="#000000" points="201.768,-476.0511 192.006,-471.9335 197.0695,-481.24 201.768,-476.0511"/>
</g>
<!-- nonsubtelomeric_specific -->
<g id="node3" class="node">
<title>nonsubtelomeric_specific</title>
<ellipse fill="none" stroke="#000000" cx="341.1401" cy="-395.4181" rx="100.9827" ry="100.9827"/>
<text text-anchor="middle" x="341.1401" y="-391.7181" font-family="Times,serif" font-size="14.00" fill="#000000">nonsubtelomeric_specific</text>
</g>
<!-- categorized&#45;&gt;nonsubtelomeric_specific -->
<g id="edge2" class="edge">
<title>categorized&#45;&gt;nonsubtelomeric_specific</title>
<path fill="none" stroke="#000000" d="M341.1401,-542.3062C341.1401,-531.1043 341.1401,-518.8196 341.1401,-506.2749"/>
<polygon fill="#000000" stroke="#000000" points="344.6402,-506.1742 341.1401,-496.1742 337.6402,-506.1743 344.6402,-506.1742"/>
</g>
<!-- telomere_like_multigroup1 -->
<g id="node4" class="node">
<title>telomere_like_multigroup1</title>
<ellipse fill="none" stroke="#000000" cx="567.1401" cy="-395.4181" rx="107.4815" ry="107.4815"/>
<text text-anchor="middle" x="567.1401" y="-391.7181" font-family="Times,serif" font-size="14.00" fill="#000000">telomere_like_multigroup1</text>
</g>
<!-- categorized&#45;&gt;telomere_like_multigroup1 -->
<g id="edge3" class="edge">
<title>categorized&#45;&gt;telomere_like_multigroup1</title>
<path fill="none" stroke="#000000" d="M381.8644,-562.6603C402.9364,-546.4568 428.8464,-525.9438 451.1401,-506.5582 461.6568,-497.4135 472.4874,-487.6043 483.1089,-477.7385"/>
<polygon fill="#000000" stroke="#000000" points="485.5039,-480.2907 490.4223,-470.9067 480.7254,-475.1754 485.5039,-480.2907"/>
</g>
<!-- ITS_specific -->
<g id="node5" class="node">
<title>ITS_specific</title>
<ellipse fill="none" stroke="#000000" cx="370.1401" cy="-124.139" rx="55.4913" ry="55.4913"/>
<text text-anchor="middle" x="370.1401" y="-120.439" font-family="Times,serif" font-size="14.00" fill="#000000">ITS_specific</text>
</g>
<!-- telomere_like_multigroup1&#45;&gt;ITS_specific -->
<g id="edge4" class="edge">
<title>telomere_like_multigroup1&#45;&gt;ITS_specific</title>
<path fill="none" stroke="#000000" d="M491.3823,-319.1494C471.5351,-297.2217 450.995,-272.6269 434.1401,-248.278 420.3151,-228.306 407.5098,-204.9558 397.0433,-183.9295"/>
<polygon fill="#000000" stroke="#000000" points="400.0968,-182.2068 392.5546,-174.7661 393.8105,-185.2862 400.0968,-182.2068"/>
</g>
<!-- noncanonical_telomere_specific -->
<g id="node6" class="node">
<title>noncanonical_telomere_specific</title>
<ellipse fill="none" stroke="#000000" cx="567.1401" cy="-124.139" rx="124.2781" ry="124.2781"/>
<text text-anchor="middle" x="567.1401" y="-120.439" font-family="Times,serif" font-size="14.00" fill="#000000">noncanonical_telomere_specific</text>
</g>
<!-- telomere_like_multigroup1&#45;&gt;noncanonical_telomere_specific -->
<g id="edge5" class="edge">
<title>telomere_like_multigroup1&#45;&gt;noncanonical_telomere_specific</title>
<path fill="none" stroke="#000000" d="M567.1401,-287.8118C567.1401,-278.26 567.1401,-268.5142 567.1401,-258.7754"/>
<polygon fill="#000000" stroke="#000000" points="570.6402,-258.6374 567.1401,-248.6374 563.6402,-258.6375 570.6402,-258.6374"/>
</g>
<!-- TAR1_specific -->
<g id="node7" class="node">
<title>TAR1_specific</title>
<ellipse fill="none" stroke="#000000" cx="773.1401" cy="-124.139" rx="63.8893" ry="63.8893"/>
<text text-anchor="middle" x="773.1401" y="-120.439" font-family="Times,serif" font-size="14.00" fill="#000000">TAR1_specific</text>
</g>
<!-- telomere_like_multigroup1&#45;&gt;TAR1_specific -->
<g id="edge6" class="edge">
<title>telomere_like_multigroup1&#45;&gt;TAR1_specific</title>
<path fill="none" stroke="#000000" d="M642.0116,-318.5174C661.8553,-296.5872 682.6152,-272.1492 700.1401,-248.278 713.6126,-229.9268 726.7364,-208.9252 738.0552,-189.4802"/>
<polygon fill="#000000" stroke="#000000" points="741.1705,-191.0839 743.1235,-180.6706 735.1029,-187.5931 741.1705,-191.0839"/>
</g>
</g>
</svg>
